<svg xmlns="http://www.w3.org/2000/svg" version="1.1" xmlns:xlink="http://www.w3.org/1999/xlink" x="0" y="0" viewBox="0 0 24 24" style="enable-background:new 0 0 512 512" xml:space="preserve"><g><clipPath id="a"><path d="M0 0h24v24H0z" fill="currentColor" opacity="1" data-original="#000000"></path></clipPath><g clip-path="url(#a)"><path fill="currentColor" d="M16.59 9H15V4c0-.55-.45-1-1-1h-4c-.55 0-1 .45-1 1v5H7.41c-.89 0-1.34 1.08-.71 1.71l4.59 4.59c.39.39 1.02.39 1.41 0l4.59-4.59c.63-.63.19-1.71-.7-1.71zM5 19c0 .55.45 1 1 1h12c.55 0 1-.45 1-1s-.45-1-1-1H6c-.55 0-1 .45-1 1z" opacity="1" data-original="#000000"></path></g></g></svg>